<svg xmlns="http://www.w3.org/2000/svg" xmlns:xlink="http://www.w3.org/1999/xlink" width="40" height="33" viewBox="0 0 40 33"><defs><path id="ctjta" d="M844.065 1068.488a.719.719 0 0 1-.165.434l-19.32 21.833c-.016.019-.045.011-.063.03-.05.047-.093.089-.156.12-.013.008-.016.031-.034.037a.756.756 0 0 1-.292.06.752.752 0 0 1-.29-.06c-.018-.006-.02-.029-.034-.034-.063-.034-.105-.076-.158-.122-.016-.02-.045-.012-.06-.031l-19.32-21.833a.715.715 0 0 1-.163-.434c0-.016-.016-.028-.016-.042 0-.032.026-.047.029-.078.01-.069-.003-.14.026-.205l4.122-9.697a.728.728 0 0 1 .669-.44h30.398c.292 0 .555.175.669.44l4.119 9.697c.029.066.016.136.024.205.005.031.031.046.031.078 0 .014-.016.026-.016.042zm-24.952-9.019l-3.556 8.256h16.961l-3.553-8.256zm-3.546 9.698l8.468 19.307 8.473-19.307zm-9.246 0l15.192 17.171-7.53-17.17zm20.238 17.168l15.193-17.168h-7.66zm12.197-26.866h-8.214l3.553 8.256h8.17zm-32.946 8.256h8.173l3.556-8.256h-8.22z"/><linearGradient id="ctjtb" x1="807.99" x2="840.08" y1="1058.03" y2="1091" gradientUnits="userSpaceOnUse"><stop offset="0" stop-color="#fff"/><stop offset="1" stop-color="#fff"/></linearGradient></defs><g><g transform="translate(-804 -1058)"><use fill="url(#ctjtb)" xlink:href="#ctjta"/><use fill="#ff3b4a" xlink:href="#ctjta"/></g></g></svg>